<svg id="Layer_1" data-name="Layer 1" xmlns="http://www.w3.org/2000/svg" width="430.73535" height="59.29492" viewBox="0 0 430.73535 59.29492">
  <g>
    <path d="M43.041,21.3667V37.92822c0,12.81739-7.70459,20.16162-20.88184,20.16162H.125V1.20508H22.15918C35.33643,1.20508,43.041,8.5498,43.041,21.3667Zm-1.44043,0C41.60059,9.41406,34.3999,2.645,22.15918,2.645H1.56543V56.6499H22.15918c12.24072,0,19.44141-6.76855,19.44141-18.72168Zm-20.7378-1.584h1.44043v19.7295H20.86279Z" fill="#231f20" stroke="#231f20" stroke-linecap="round" stroke-linejoin="bevel" stroke-width="0.25"/>
    <path d="M87.75244,20.28662V39.0083c0,12.81738-7.70459,20.16162-20.88183,20.16162H65.71826c-13.17724,0-20.88183-7.34424-20.88183-20.16162V20.28662C44.83643,7.46973,52.541.125,65.71826.125h1.15235C80.04785.125,87.75244,7.46973,87.75244,20.28662Zm-1.44043,0c0-11.95312-7.20068-18.72168-19.4414-18.72168H65.71826c-12.24072,0-19.4414,6.76856-19.4414,18.72168V39.0083c0,11.95313,7.20068,18.72168,19.4414,18.72168h1.15235c12.24072,0,19.4414-6.76855,19.4414-18.72168Zm-20.73779-1.584h1.44043V40.59229H65.57422Z" fill="#231f20" stroke="#231f20" stroke-linecap="round" stroke-linejoin="bevel" stroke-width="0.25"/>
    <path d="M130.66309,21.22266H121.1582V58.08984H98.98047V21.22266H89.54736V1.20508h41.11573Zm-1.44-18.57764H90.98779V19.78271h9.43262V56.6499h19.29785V19.78271h9.50488Z" fill="#231f20" stroke="#231f20" stroke-linecap="round" stroke-linejoin="bevel" stroke-width="0.25"/>
    <path d="M193.01465,21.3667V37.92822c0,12.81739-7.7041,20.16162-20.88184,20.16162h-22.0332V1.20508h22.0332C185.31055,1.20508,193.01465,8.5498,193.01465,21.3667Zm-1.43945,0c0-11.95264-7.20118-18.72168-19.44239-18.72168H151.53906V56.6499h20.59375c12.24121,0,19.44239-6.76855,19.44239-18.72168Zm-20.73829-1.584h1.44043v19.7295h-1.44043Z" fill="#231f20" stroke="#231f20" stroke-linecap="round" stroke-linejoin="bevel" stroke-width="0.25"/>
    <path d="M237.72559,20.28662V39.0083c0,12.81738-7.70411,20.16162-20.88184,20.16162h-1.15137c-13.17773,0-20.88183-7.34424-20.88183-20.16162V20.28662c0-12.81689,7.7041-20.16162,20.88183-20.16162h1.15137C230.02148.125,237.72559,7.46973,237.72559,20.28662Zm-1.43946,0c0-11.95312-7.20117-18.72168-19.44238-18.72168h-1.15137c-12.24121,0-19.44238,6.76856-19.44238,18.72168V39.0083c0,11.95313,7.20117,18.72168,19.44238,18.72168h1.15137c12.24121,0,19.44238-6.76855,19.44238-18.72168Zm-20.73828-1.584h1.44043V40.59229h-1.44043Z" fill="#231f20" stroke="#231f20" stroke-linecap="round" stroke-linejoin="bevel" stroke-width="0.25"/>
    <path d="M280.63672,21.22266h-9.50488V58.08984H248.9541V21.22266h-9.43262V1.20508h41.11524ZM279.19629,2.645H240.96094V19.78271h9.43359V56.6499h19.29688V19.78271h9.50488Z" fill="#231f20" stroke="#231f20" stroke-linecap="round" stroke-linejoin="bevel" stroke-width="0.25"/>
    <path d="M342.98828,21.3667V37.92822c0,12.81739-7.7041,20.16162-20.88183,20.16162H300.07324V1.20508h22.03321C335.28418,1.20508,342.98828,8.5498,342.98828,21.3667Zm-1.43945,0c0-11.95264-7.20117-18.72168-19.44238-18.72168H301.5127V56.6499h20.59375c12.24121,0,19.44238-6.76855,19.44238-18.72168Zm-20.73828-1.584H322.251v19.7295h-1.44043Z" fill="#231f20" stroke="#231f20" stroke-linecap="round" stroke-linejoin="bevel" stroke-width="0.25"/>
    <path d="M387.69922,20.28662V39.0083c0,12.81738-7.7041,20.16162-20.88184,20.16162H365.666c-13.17774,0-20.88184-7.34424-20.88184-20.16162V20.28662C344.78418,7.46973,352.48828.125,365.666.125h1.15136C379.99512.125,387.69922,7.46973,387.69922,20.28662Zm-1.43945,0c0-11.95312-7.20118-18.72168-19.44239-18.72168H365.666c-12.24122,0-19.44239,6.76856-19.44239,18.72168V39.0083c0,11.95313,7.20117,18.72168,19.44239,18.72168h1.15136c12.24121,0,19.44239-6.76855,19.44239-18.72168Zm-20.73829-1.584h1.44043V40.59229h-1.44043Z" fill="#231f20" stroke="#231f20" stroke-linecap="round" stroke-linejoin="bevel" stroke-width="0.25"/>
    <path d="M430.61035,21.22266h-9.50488V58.08984H398.92773V21.22266h-9.43261V1.20508h41.11523ZM429.16992,2.645H390.93457V19.78271h9.43359V56.6499H419.665V19.78271h9.50488Z" fill="#231f20" stroke="#231f20" stroke-linecap="round" stroke-linejoin="bevel" stroke-width="0.25"/>
  </g>
</svg>
