<svg id="svg18" width="351.58mm" height="38.298mm" version="1.1" viewBox="0 0 351.58 38.298" xmlns="http://www.w3.org/2000/svg">
 <g id="layer1" transform="translate(-1.9535 -19.165)">
  <g id="g18273">
   <g id="text1168" stroke-width=".26458" aria-label="dot • dot • dot">
    <path id="path18275" d="m21.252 54.561v-1.0914q-1.1658 1.8604-3.175 2.927-2.0092 1.0666-4.316 1.0666-2.2572 0-5.0105-1.017-2.7037-0.99219-4.7625-4.4896-2.034-3.4479-2.034-7.7143 0-5.333 2.2572-8.0615 2.3068-2.7533 4.4896-3.7703 2.1828-1.0418 4.2168-1.0418 3.3734 0 5.333 1.1658 1.9348 1.1906 3.0014 2.5549v-12.898q0-1.3146 0.84336-2.158 0.84336-0.86816 2.1828-0.86816 1.3146 0 2.158 0.86816 0.86816 0.84336 0.86816 2.158v32.221q0 1.3146-0.86816 2.1828-0.84336 0.86816-2.158 0.86816-1.3395 0-2.1828-0.81856-0.84336-0.81855-0.84336-2.0836zm-6.3252-19.025q-4.8369 0-5.7051 3.5471-0.86816 3.6215-0.86816 5.209 0 1.5627 0.42168 3.5967 0.42168 1.9596 2.0092 3.6463 1.5875 1.7115 4.0432 1.7115 2.4309 0 4.44-1.6371 1.9844-1.6371 1.9844-4.5889v-5.3578q0-2.4805-1.8604-4.316-1.8852-1.8107-4.4648-1.8107z"/>
    <path id="path18277" d="m35.192 45.036q0-6.3004 3.423-9.9963 3.3734-3.6711 9.4754-3.6711 6.0771 0 9.5002 3.6463 3.3982 3.6711 3.3982 9.3762t-3.3982 9.401q-3.423 3.6711-9.5994 3.6711-3.9191 0-6.8461-1.6123-2.927-1.6371-4.44-4.5889-1.5131-2.8773-1.5131-6.226zm7.6398-6.7469q-1.3891 3.051-1.3891 5.2834 0 2.2572 0.37207 4.3656 0.37207 2.1084 1.9596 3.8447 1.6123 1.7611 4.44 1.7611 2.8773 0 4.6881-2.3316 1.8355-2.3316 1.8355-6.9205 0-4.6385-1.9596-6.8213-1.9596-2.1828-4.6633-2.1828-3.9191 0-5.2834 3.0014z"/>
    <path id="path18279" d="m76.144 35.833v13.742q0.04961 3.9936 2.7037 3.9936 1.2898 0 2.0588-0.37207 0.76895-0.37207 1.141-0.37207 1.2154 0 1.2154 1.3891 0 1.4139-1.0666 1.9596-2.4309 1.2898-5.3826 1.2898-2.927 0-4.8121-1.7859-1.8852-1.7363-1.8852-5.2586v-14.585h-2.4309q-0.84336 0-1.4139-0.5457-0.5457-0.57051-0.5457-1.4139 0-0.86816 0.5457-1.3891 0.5457-0.5457 1.4139-0.5457h2.4309v-4.0928q0-1.3146 0.84336-2.158 0.84336-0.84336 2.158-0.84336 1.3146 0 2.158 0.86816 0.86816 0.84336 0.86816 2.1332v4.0928h4.3656q0.84336 0 1.3891 0.5457t0.5457 1.3891q0 0.84336-0.5457 1.4139-0.5457 0.5457-1.3891 0.5457z"/>
    <path id="path18281" d="m103.4 43.225q-1.5131-2.4557-0.71934-5.457 0.81856-3.0262 3.3486-4.3904 2.4557-1.5131 5.457-0.69453 3.0262 0.79375 4.3904 3.3238 1.5131 2.4557 0.69453 5.4818-0.79375 3.0014-3.3238 4.3408-2.4557 1.5131-5.4818 0.71934-3.0014-0.79375-4.3656-3.3238z"/>
    <path id="path18283" d="m156.39 54.561v-1.0914q-1.1658 1.8604-3.175 2.927-2.0092 1.0666-4.316 1.0666-2.2572 0-5.0106-1.017-2.7037-0.99219-4.7625-4.4896-2.034-3.4479-2.034-7.7143 0-5.333 2.2572-8.0615 2.3068-2.7533 4.4896-3.7703 2.1828-1.0418 4.2168-1.0418 3.3734 0 5.333 1.1658 1.9348 1.1906 3.0014 2.5549v-12.898q0-1.3146 0.84336-2.158 0.84336-0.86816 2.1828-0.86816 1.3146 0 2.158 0.86816 0.86817 0.84336 0.86817 2.158v32.221q0 1.3146-0.86817 2.1828-0.84336 0.86816-2.158 0.86816-1.3395 0-2.1828-0.81856-0.84336-0.81855-0.84336-2.0836zm-6.3252-19.025q-4.8369 0-5.7051 3.5471-0.86816 3.6215-0.86816 5.209 0 1.5627 0.42168 3.5967 0.42168 1.9596 2.0092 3.6463 1.5875 1.7115 4.0432 1.7115 2.4309 0 4.44-1.6371 1.9844-1.6371 1.9844-4.5889v-5.3578q0-2.4805-1.8604-4.316-1.8852-1.8107-4.4648-1.8107z"/>
    <path id="path18285" d="m170.33 45.036q0-6.3004 3.423-9.9963 3.3734-3.6711 9.4754-3.6711 6.0771 0 9.5002 3.6463 3.3982 3.6711 3.3982 9.3762t-3.3982 9.401q-3.423 3.6711-9.5994 3.6711-3.9191 0-6.8461-1.6123-2.927-1.6371-4.44-4.5889-1.5131-2.8773-1.5131-6.226zm7.6398-6.7469q-1.3891 3.051-1.3891 5.2834 0 2.2572 0.37207 4.3656 0.37207 2.1084 1.9596 3.8447 1.6123 1.7611 4.44 1.7611 2.8773 0 4.6881-2.3316 1.8355-2.3316 1.8355-6.9205 0-4.6385-1.9596-6.8213-1.9596-2.1828-4.6633-2.1828-3.9191 0-5.2834 3.0014z"/>
    <path id="path18287" d="m211.28 35.833v13.742q0.0496 3.9936 2.7037 3.9936 1.2898 0 2.0588-0.37207 0.76895-0.37207 1.141-0.37207 1.2154 0 1.2154 1.3891 0 1.4139-1.0666 1.9596-2.4308 1.2898-5.3826 1.2898-2.927 0-4.8121-1.7859-1.8852-1.7363-1.8852-5.2586v-14.585h-2.4309q-0.84336 0-1.4139-0.5457-0.54571-0.57051-0.54571-1.4139 0-0.86816 0.54571-1.3891 0.5457-0.5457 1.4139-0.5457h2.4309v-4.0928q0-1.3146 0.84336-2.158 0.84336-0.84336 2.158-0.84336t2.158 0.86816q0.86816 0.84336 0.86816 2.1332v4.0928h4.3656q0.84336 0 1.3891 0.5457t0.5457 1.3891q0 0.84336-0.5457 1.4139-0.5457 0.5457-1.3891 0.5457z"/>
    <path id="path18289" d="m238.54 43.225q-1.5131-2.4557-0.71934-5.457 0.81856-3.0262 3.3486-4.3904 2.4557-1.5131 5.457-0.69453 3.0262 0.79375 4.3904 3.3238 1.5131 2.4557 0.69453 5.4818-0.79375 3.0014-3.3238 4.3408-2.4557 1.5131-5.4818 0.71934-3.0014-0.79375-4.3656-3.3238z"/>
    <path id="path18291" d="m291.52 54.561v-1.0914q-1.1658 1.8604-3.175 2.927-2.0092 1.0666-4.316 1.0666-2.2572 0-5.0106-1.017-2.7037-0.99219-4.7625-4.4896-2.034-3.4479-2.034-7.7143 0-5.333 2.2572-8.0615 2.3068-2.7533 4.4896-3.7703 2.1828-1.0418 4.2168-1.0418 3.3734 0 5.333 1.1658 1.9348 1.1906 3.0014 2.5549v-12.898q0-1.3146 0.84336-2.158 0.84336-0.86816 2.1828-0.86816 1.3146 0 2.158 0.86816 0.86817 0.84336 0.86817 2.158v32.221q0 1.3146-0.86817 2.1828-0.84335 0.86816-2.158 0.86816-1.3395 0-2.1828-0.81856-0.84336-0.81855-0.84336-2.0836zm-6.3252-19.025q-4.8369 0-5.7051 3.5471-0.86816 3.6215-0.86816 5.209 0 1.5627 0.42168 3.5967 0.42168 1.9596 2.0092 3.6463 1.5875 1.7115 4.0432 1.7115 2.4309 0 4.44-1.6371 1.9844-1.6371 1.9844-4.5889v-5.3578q0-2.4805-1.8604-4.316-1.8852-1.8107-4.4648-1.8107z"/>
    <path id="path18293" d="m305.46 45.036q0-6.3004 3.423-9.9963 3.3734-3.6711 9.4754-3.6711 6.0772 0 9.5002 3.6463 3.3982 3.6711 3.3982 9.3762t-3.3982 9.401q-3.423 3.6711-9.5994 3.6711-3.9191 0-6.8461-1.6123-2.927-1.6371-4.44-4.5889-1.5131-2.8773-1.5131-6.226zm7.6398-6.7469q-1.3891 3.051-1.3891 5.2834 0 2.2572 0.37207 4.3656 0.37207 2.1084 1.9596 3.8447 1.6123 1.7611 4.44 1.7611 2.8773 0 4.6881-2.3316 1.8355-2.3316 1.8355-6.9205 0-4.6385-1.9596-6.8213-1.9596-2.1828-4.6633-2.1828-3.9191 0-5.2834 3.0014z"/>
    <path id="path18295" d="m346.42 35.833v13.742q0.0496 3.9936 2.7037 3.9936 1.2898 0 2.0588-0.37207 0.76894-0.37207 1.141-0.37207 1.2154 0 1.2154 1.3891 0 1.4139-1.0666 1.9596-2.4309 1.2898-5.3826 1.2898-2.927 0-4.8121-1.7859-1.8852-1.7363-1.8852-5.2586v-14.585h-2.4309q-0.84336 0-1.4139-0.5457-0.5457-0.57051-0.5457-1.4139 0-0.86816 0.5457-1.3891 0.5457-0.5457 1.4139-0.5457h2.4309v-4.0928q0-1.3146 0.84336-2.158 0.84336-0.84336 2.158-0.84336 1.3146 0 2.158 0.86816 0.86817 0.84336 0.86817 2.1332v4.0928h4.3656q0.84336 0 1.3891 0.5457 0.54571 0.5457 0.54571 1.3891 0 0.84336-0.54571 1.4139-0.5457 0.5457-1.3891 0.5457z"/>
   </g>
  </g>
 </g>
</svg>
