<svg id="Layer_1" data-name="Layer 1" xmlns="http://www.w3.org/2000/svg" width="128.37793" height="59.04492" viewBox="0 0 128.37793 59.04492">
  <g>
    <path d="M1.7998,2.52H22.39355C34.63428,2.52,41.835,9.28857,41.835,21.2417V37.80322c0,11.95313-7.20068,18.72168-19.44141,18.72168H1.7998ZM22.5376,39.38721V19.65771H21.09717v19.7295Z" fill="#231f20"/>
    <path d="M45.43115,38.8833V20.16162c0-11.95312,7.20069-18.72168,19.44141-18.72168H66.0249c12.24072,0,19.44141,6.76856,19.44141,18.72168V38.8833c0,11.95313-7.20069,18.72168-19.44141,18.72168H64.87256C52.63184,57.605,45.43115,50.83643,45.43115,38.8833Zm20.7378,1.584V18.57764H64.72852V40.46729Z" fill="#231f20"/>
    <path d="M126.57812,19.65771h-9.50488V56.5249H97.77539V19.65771H88.34277V2.52h38.23535Z" fill="#231f20"/>
  </g>
</svg>
