<svg id="Layer_1" data-name="Layer 1" xmlns="http://www.w3.org/2000/svg" width="128.37793" height="59.04492" viewBox="0 0 128.37793 59.04492">
  <g>
    <path d="M42.916,21.24121V37.80273c0,12.81739-7.70508,20.16211-20.88184,20.16211H0V1.08008H22.03418C35.21094,1.08008,42.916,8.42383,42.916,21.24121Zm-1.44043,0c0-11.95312-7.20118-18.72168-19.44141-18.72168H1.44043V56.52441H22.03418c12.24023,0,19.44141-6.76855,19.44141-18.72168Zm-20.73829-1.584h1.44043V39.38672H20.7373Z" fill="#231f20"/>
    <path d="M86.54688,20.16113V38.88281c0,12.81739-7.70411,20.16211-20.88184,20.16211H64.5127c-13.17676,0-20.88184-7.34472-20.88184-20.16211V20.16113C43.63086,7.34375,51.33594,0,64.5127,0H65.665C78.84277,0,86.54688,7.34375,86.54688,20.16113Zm-1.44043,0c0-11.95312-7.2002-18.72168-19.44141-18.72168H64.5127c-12.24024,0-19.44141,6.76856-19.44141,18.72168V38.88281c0,11.95313,7.20117,18.72168,19.44141,18.72168H65.665c12.24121,0,19.44141-6.76855,19.44141-18.72168Zm-20.73731-1.584h1.44043V40.4668H64.36914Z" fill="#231f20"/>
    <path d="M128.37793,21.09766h-9.50488V57.96484H96.69531V21.09766H87.26172V1.08008h41.11621ZM126.9375,2.51953H88.70215v17.1377h9.43262V56.52441h19.29785V19.65723h9.50488Z" fill="#231f20"/>
  </g>
</svg>
